# xmcd CD database file
#
# Track frame offsets:
#	150
#	12414
#	32161
#	47297
#	64939
#	91513
#	106452
#	123035
#	137741
#	155535
#	174999
#	194625
#	212850
#	227260
#	239724
#	252622
#	269735
#	288530
#
# Disc length: 4020 seconds
#
# Revision: 4
# Processed by: cddbd v1.5.2PL0 Copyright (c) Steve Scherf et al.
# Submitted via: CDex 1.51
#
DISCID=050fb212
DTITLE=Various Artist - La Collection en Or - SLOWS  [CD 1-2]
DYEAR=2009
DGENRE=Slows
TTITLE0=Véronique Jannot - J'ai fait l'amour avec la mer   [1982]
TTITLE1=Nicole Croisille - Une femme avec toi   [1975]
TTITLE2=Dennis' Twist - Tu dis que tu l' M   [1986]
TTITLE3=Stéphanie - I'm Waiting For You   [1986]
TTITLE4=Imagination - Body Talk   [1981]
TTITLE5=Jean Schultheis - Moi je t'aimais   [1983]
TTITLE6=Eddy Rosemond - Between Two Memories   [1979]
TTITLE7=Marie Myriam - Sentimentale   [1988]
TTITLE8=Caroline Legrand - J'aurai voulu te dire   [1988]
TTITLE9=Alain Delon - Comme au cinéma   [1987]
TTITLE10=Début de soirée - Jardin d'enfants   [1989]
TTITLE11=David Ifram - So Long Baby Don't Cry   [1978]
TTITLE12=Philippe Lafontaine - Alexis m'attend   [1989]
TTITLE13=Gérard Manuel - On a trop fait l'amour ensemble   [1971]
TTITLE14=Jean-François Michael - Adieu jolie Candy   [1969]
TTITLE15=Tommy Nilsson - No Way No How   [1981]
TTITLE16=Claude-Michel Schönberg - Slow-moi   [1976]
TTITLE17=Red Hurley - When   [1975]
EXTD=YEAR: 2009
EXTT0=
EXTT1=
EXTT2=
EXTT3=
EXTT4=
EXTT5=
EXTT6=
EXTT7=
EXTT8=
EXTT9=
EXTT10=
EXTT11=
EXTT12=
EXTT13=
EXTT14=
EXTT15=
EXTT16=
EXTT17=
PLAYORDER=
